<svg width="50" height="50" viewBox="0 0 14 16" fill="none" xmlns="http://www.w3.org/2000/svg">
<path d="M0.215036 13.6999C0.11394 13.8347 0.14762 14.0369 0.282451 14.138L2.72587 15.9411C2.8607 16.0422 3.06289 16.0085 3.16399 15.8737L4.12447 14.5761L1.17552 12.4023L0.215036 13.6999Z" fill="#2F80ED"/>
<path d="M13.6428 9.38611C13.4574 9.18392 13.1541 9.1165 12.8845 9.20076L10.6601 9.92539V10.0939C10.6433 10.7174 10.1883 11.2566 9.58165 11.3914L9.44682 11.4251C8.63794 11.6104 7.81226 11.7115 6.98655 11.7621L6.31251 11.7958C6.11032 11.8126 5.9249 11.6441 5.9249 11.4419C5.90806 11.2397 6.07658 11.0543 6.27876 11.0543L6.95281 11.0206C7.74478 10.987 8.51997 10.869 9.29512 10.7005L9.42995 10.6668C9.71639 10.5994 9.91865 10.3634 9.91865 10.077C9.91865 9.90848 9.86807 9.73997 9.75014 9.62204C9.6322 9.5041 9.48053 9.43669 9.31202 9.41985L5.75643 9.33559C5.36882 9.31875 4.96445 9.45353 4.64426 9.68946L1.69531 11.8464L4.79593 14.1213L7.79543 14.3741C8.3178 14.4247 8.84017 14.2561 9.24463 13.936L13.5754 10.4646C13.7439 10.3298 13.8281 10.1444 13.845 9.94225C13.8618 9.74007 13.7945 9.53781 13.6428 9.38613V9.38611Z" fill="#2F80ED"/>
<path d="M5.3516 4.7688V7.26277C5.3516 7.71772 5.70546 8.07165 6.16049 8.07165H12.3786C12.8335 8.07165 13.1874 7.71779 13.1874 7.26277L13.1874 4.7688C12.3112 4.90363 11.3675 4.98789 10.5249 5.02157V5.07214C10.5249 5.57768 10.1205 5.98212 9.63177 5.98212H8.94089C8.43535 5.98212 8.04775 5.57768 8.04775 5.07214V5.02157C7.17156 4.98783 6.22796 4.90358 5.35156 4.7688H5.3516Z" fill="#2F80ED"/>
<path d="M4.94323 4.04429C5.73521 4.19597 6.76316 4.33073 8.02699 4.38132C8.02699 3.87578 8.43144 3.48818 8.92013 3.48818H9.61102C10.0997 3.48818 10.5042 3.89262 10.5042 4.38132C11.7512 4.33074 12.7791 4.19597 13.5711 4.04429C13.6722 4.02745 13.7564 3.92636 13.7564 3.80836V2.56136C13.7564 2.10641 13.3857 1.75248 12.9475 1.75248L11.1613 1.75253V1.16274C11.1613 0.522372 10.6389 0 9.99856 0H8.51566C7.87529 0 7.35292 0.522372 7.35292 1.16274V1.75253H5.5667C5.11174 1.75253 4.75781 2.10639 4.75781 2.56142V3.80842C4.75781 3.92635 4.84207 4.02745 4.94322 4.04429L4.94323 4.04429ZM8.27976 1.16275C8.27976 1.02791 8.3977 0.926815 8.53253 0.926815H10.0154C10.1503 0.926815 10.2514 1.04475 10.2514 1.16275V1.75254H8.27977L8.27976 1.16275Z" fill="#2F80ED"/>
<path d="M9.62334 5.34192C9.77501 5.34192 9.89294 5.22398 9.89294 5.07231V4.39827C9.89294 4.24659 9.77501 4.12866 9.62334 4.12866H8.94929C8.79762 4.12866 8.67969 4.2466 8.67969 4.39827V5.07231C8.67969 5.22399 8.79762 5.34192 8.94929 5.34192H9.62334Z" fill="#2F80ED"/>
</svg>
