<svg width="14" height="16" viewBox="0 0 14 16" fill="none" xmlns="http://www.w3.org/2000/svg">
<path d="M13.2279 4.21343C13.2279 4.21343 13.186 4.03404 13.172 3.97877C13.172 3.96497 13.158 3.95115 13.158 3.9374C13.144 3.90976 13.102 3.77174 13.088 3.73037C13.088 3.71656 13.088 3.71656 13.074 3.70274C12.948 3.30251 12.7521 2.95747 12.5981 2.69526C11.2263 0.445621 8.39879 -0.244454 6.35514 0.0729807C4.49346 0.36283 3.1077 1.25993 2.33783 2.69526C2.15589 3.08167 2.02984 3.41297 1.94593 3.70274L1.88995 3.90976C1.88995 3.92358 1.87594 3.95115 1.87594 3.96495L1.83398 4.19961C1.76399 4.61365 1.76399 5.06909 1.81996 5.53841V5.67642C1.81996 5.80062 1.79194 5.93863 1.72195 6.06283L0.714092 8.17444C0.602139 8.42284 0.616081 8.69886 0.770068 8.93353C0.910044 9.16819 1.16197 9.3062 1.44192 9.3062H1.95986L1.73588 10.3551C1.69392 10.576 1.70786 10.8105 1.77785 11.0176L1.81981 11.1142C1.94578 11.4593 1.98781 11.8457 1.91782 12.2183C1.87586 12.4392 1.93184 12.6737 2.0578 12.867C2.19778 13.0464 2.39372 13.1707 2.6177 13.2121L4.14342 13.4329V15.793C4.14342 15.862 4.17145 15.9172 4.22742 15.9586C4.2694 15.9862 4.31142 16 4.35338 16C4.38141 16 4.40937 16 4.42337 15.9862L10.9882 13.6537C11.0442 13.6399 11.0863 13.5985 11.1142 13.5433C11.1422 13.4882 11.1422 13.433 11.1142 13.3777C10.6663 12.3149 10.6103 11.3903 10.9323 10.645C11.1282 10.231 11.3802 9.96874 11.5482 9.80309L11.6041 9.7479C13.256 8.17448 13.7879 6.31133 13.228 4.2135L13.2279 4.21343Z" fill="#2F80ED"/>
<path d="M8.97863 5.04912C8.96395 4.52728 8.72883 4.04166 8.3321 3.69376C7.6121 3.07043 6.52477 3.07043 5.80476 3.69376C5.40069 4.04166 5.17293 4.52726 5.15823 5.04912C5.14355 5.57095 5.3419 6.07831 5.7166 6.44072L5.73128 6.45519C6.00309 6.70164 6.1721 7.03503 6.21617 7.39018C6.11336 7.40469 6.03989 7.49165 6.03989 7.60038V7.89029H8.09703V7.60038C8.09703 7.49165 8.02356 7.4047 7.92069 7.39018C7.96477 7.03503 8.13375 6.70164 8.39824 6.46244L8.42029 6.4407C8.78763 6.07108 8.99333 5.5637 8.97865 5.04915L8.97863 5.04912ZM6.15007 5.13608C6.15007 5.2158 6.08395 5.28103 6.00313 5.28103C5.92231 5.28103 5.85619 5.2158 5.85619 5.13608C5.85619 4.47651 6.39987 3.94016 7.06843 3.94016C7.14923 3.94016 7.21537 4.00541 7.21537 4.08513C7.21537 4.16485 7.14923 4.23008 7.06843 4.23008C6.56149 4.23008 6.15007 4.63597 6.15007 5.13608ZM7.6268 5.67967L7.21537 6.10731V7.38293H6.92149V6.10731L6.51009 5.67967C6.4513 5.62167 6.45866 5.52748 6.51742 5.47672C6.57621 5.42598 6.67171 5.42598 6.72315 5.48397L7.06843 5.83911L7.41374 5.48397C7.47253 5.42597 7.56068 5.42597 7.61947 5.47672C7.67824 5.52746 7.67824 5.62167 7.6268 5.67967ZM6.92149 2.88921V2.5993C6.92149 2.51958 6.98761 2.45435 7.06843 2.45435C7.14923 2.45435 7.21537 2.51958 7.21537 2.5993V2.88921C7.21537 2.96893 7.14923 3.03418 7.06843 3.03418C6.98761 3.03418 6.92149 2.96893 6.92149 2.88921ZM9.93374 5.71592C9.93374 5.79564 9.8676 5.86087 9.7868 5.86087H9.49292C9.4121 5.86087 9.34598 5.79564 9.34598 5.71592C9.34598 5.6362 9.4121 5.57095 9.49292 5.57095H9.7868C9.8676 5.57095 9.93374 5.6362 9.93374 5.71592ZM4.79088 5.71592C4.79088 5.79564 4.72476 5.86087 4.64394 5.86087H4.35006C4.26926 5.86087 4.20312 5.79564 4.20312 5.71592C4.20312 5.6362 4.26926 5.57095 4.35006 5.57095H4.64394C4.72476 5.57095 4.79088 5.6362 4.79088 5.71592ZM8.96393 7.38293C9.02272 7.44093 9.02272 7.5279 8.96393 7.58588C8.93454 7.61488 8.89781 7.62938 8.86107 7.62938C8.82434 7.62938 8.7876 7.61488 8.7582 7.58588L8.55249 7.38293C8.4937 7.32495 8.4937 7.23798 8.55249 7.17998C8.61127 7.12198 8.69943 7.12198 8.7582 7.17998L8.96393 7.38293ZM5.14354 3.81695C5.11414 3.84595 5.07741 3.86044 5.04067 3.86044C5.00395 3.86044 4.9672 3.84595 4.93781 3.81695L4.73209 3.614C4.6733 3.556 4.6733 3.46903 4.73209 3.41105C4.79087 3.35305 4.87902 3.35305 4.93781 3.41105L5.14354 3.614C5.20231 3.672 5.20231 3.7662 5.14354 3.81695ZM5.58435 7.18C5.64314 7.23798 5.64314 7.32495 5.58435 7.38295L5.37863 7.5859C5.34923 7.6149 5.3125 7.62938 5.27576 7.62938C5.23903 7.62938 5.20229 7.6149 5.1729 7.5859C5.11412 7.5279 5.11412 7.44093 5.1729 7.38295L5.37863 7.18C5.43742 7.12201 5.53291 7.12201 5.58435 7.18ZM9.40475 3.61402L9.19902 3.81697C9.16963 3.84597 9.1329 3.86044 9.09616 3.86044C9.05943 3.86044 9.02269 3.84597 8.99329 3.81697C8.93452 3.75897 8.93452 3.672 8.99329 3.61402L9.19902 3.41105C9.25781 3.35307 9.34596 3.35307 9.40475 3.41105C9.46351 3.46905 9.46351 3.55602 9.40475 3.61402ZM6.03985 8.18021H8.09699V8.25269C8.09699 8.65133 7.76639 8.97747 7.36231 8.97747H6.77455C6.37048 8.97747 6.03985 8.65133 6.03985 8.25269V8.18021Z" fill="#D1EDFF"/>
</svg>
