<svg width="14" height="14" viewBox="0 0 14 14" fill="none" xmlns="http://www.w3.org/2000/svg">
<path d="M11.6693 13.6666H2.33594C1.8055 13.6666 1.2968 13.4559 0.921724 13.0808C0.546651 12.7057 0.335938 12.197 0.335938 11.6666V0.999919C0.335938 0.823108 0.406175 0.653538 0.5312 0.528514C0.656224 0.40349 0.825793 0.333252 1.0026 0.333252H10.3359C10.5127 0.333252 10.6823 0.40349 10.8073 0.528514C10.9324 0.653538 11.0026 0.823108 11.0026 0.999919V8.99992H13.6693V11.6666C13.6693 12.197 13.4586 12.7057 13.0835 13.0808C12.7084 13.4559 12.1997 13.6666 11.6693 13.6666ZM11.0026 10.3333V11.6666C11.0026 11.8434 11.0728 12.013 11.1979 12.138C11.3229 12.263 11.4925 12.3333 11.6693 12.3333C11.8461 12.3333 12.0157 12.263 12.1407 12.138C12.2657 12.013 12.3359 11.8434 12.3359 11.6666V10.3333H11.0026ZM3.0026 3.66658V4.99992H8.33594V3.66658H3.0026ZM3.0026 6.33325V7.66658H8.33594V6.33325H3.0026ZM3.0026 8.99992V10.3333H6.33594V8.99992H3.0026Z" fill="#2F80ED"/>
</svg>
