<svg width="147" height="110" viewBox="0 0 147 110" fill="none" xmlns="http://www.w3.org/2000/svg">
<path d="M72.725 60.0082C72.8793 59.854 73.0346 59.6986 73.1889 59.6986C69.4768 53.6668 63.2906 49.9547 55.7119 50.1099C54.7841 50.1099 53.8563 50.728 53.5467 51.6569L45.968 74.238L43.3389 60.7828H43.8028C44.7306 60.7828 45.5041 60.0092 45.5041 59.0814V54.4413C45.5041 53.5135 44.7306 52.74 43.8028 52.74H37.771C36.8432 52.74 36.0697 53.5135 36.0697 54.4413V59.0814C36.0697 60.0092 36.8432 60.7828 37.771 60.7828H38.2349L35.6058 74.238L28.0271 51.6569C27.7175 50.7291 26.944 50.1099 25.8619 50.1099C15.4996 49.8002 7.76655 57.0694 5.44607 67.2773L0.188969 89.0848C-0.894185 94.0345 2.81807 98.6735 7.76765 98.6735H58.0326V98.5193L63.1364 76.5565C64.6824 69.9066 67.9306 64.1844 72.7251 60.0083L72.725 60.0082Z" fill="#F88341"/>
<path d="M64.8397 24.1269C64.8397 37.4526 54.0375 48.2549 40.7128 48.2549C27.3871 48.2549 16.5859 37.4526 16.5859 24.1269C16.5859 10.8023 27.3871 0 40.7128 0C54.0375 0 64.8397 10.8023 64.8397 24.1269Z" fill="#F88341"/>
<path d="M146.813 100.22L141.864 78.4128C139.544 68.2049 131.811 60.9358 121.448 61.2454C120.52 61.2454 119.592 61.8636 119.282 62.7925L111.704 85.3736L109.075 71.9183H109.539C110.466 71.9183 111.24 71.1448 111.24 70.217V65.5769C111.24 64.6491 110.466 63.8756 109.539 63.8756H103.507C102.579 63.8756 101.805 64.6491 101.805 65.5769V70.217C101.805 71.1448 102.579 71.9183 103.507 71.9183H103.971L101.342 85.3736L93.4541 62.6384C93.1445 61.7106 92.371 61.0913 91.2889 61.0913C80.9266 60.7817 73.1935 68.0508 70.8731 78.2587L65.9233 100.066C64.8402 105.016 68.5525 109.655 73.502 109.655H139.078C144.183 109.655 147.895 105.016 146.813 100.221L146.813 100.22Z" fill="#F88341"/>
<path d="M130.418 35.2626C130.418 48.5884 119.617 59.3895 106.291 59.3895C92.9663 59.3895 82.1641 48.5884 82.1641 35.2626C82.1641 21.938 92.9663 11.1357 106.291 11.1357C119.617 11.1357 130.418 21.938 130.418 35.2626Z" fill="#F88341"/>
</svg>
