<svg width="20" height="21" viewBox="0 0 20 21" fill="none" xmlns="http://www.w3.org/2000/svg">
<path d="M0 10.1016C0 4.57871 4.47715 0.101562 10 0.101562C15.5228 0.101562 20 4.57871 20 10.1016C20 15.6244 15.5228 20.1016 10 20.1016C4.47715 20.1016 0 15.6244 0 10.1016Z" fill="#B92B27"/>
<path fill-rule="evenodd" clip-rule="evenodd" d="M9.43648 14.8918C9.91211 14.8918 10.3924 14.8249 10.8449 14.704L10.8434 14.7048C11.3821 15.6284 12.1017 16.4165 13.4601 16.4165C15.7051 16.4165 15.9537 14.3485 15.9076 13.8505H15.1041C15.0625 14.2245 14.8131 14.7002 14.1974 14.7002C13.6325 14.7002 13.2262 14.3077 12.8336 13.7174C14.0535 12.7722 14.8924 11.3107 14.8924 9.51208C14.8924 6.27808 12.2295 4.10156 9.43571 4.10156C6.68812 4.10156 3.99902 6.29502 3.99902 9.51208C3.99902 12.6999 6.68889 14.8918 9.43648 14.8918ZM8.43047 12.0155C9.40714 12.0155 9.9074 12.8645 10.3338 13.7034C10.0613 13.7834 9.76425 13.8188 9.43639 13.8188C7.37377 13.8188 6.48099 12.3627 6.48099 9.51193C6.48099 6.64582 7.37377 5.17428 9.43639 5.17428C11.5298 5.17428 12.4256 6.64582 12.4256 9.51193C12.4256 10.6595 12.2763 11.5861 11.9608 12.2711C11.4282 11.4691 10.7578 10.838 9.45178 10.838C8.61211 10.838 7.95869 11.1135 7.5554 11.4614L7.88634 12.1233C8.0572 12.0463 8.24422 12.0155 8.43047 12.0155Z" fill="white"/>
</svg>
