<svg width="35" height="62" viewBox="0 0 35 62" fill="none" xmlns="http://www.w3.org/2000/svg">
<path d="M10.7102 19.9404C14.2441 17.312 17.1216 13.817 20.3468 10.8201C23.6939 7.70911 27.1967 4.76416 30.8552 2.02418C30.4167 1.9671 29.9782 1.91002 29.5397 1.85553C30.4011 2.72993 29.8874 4.16998 29.5111 5.17152C28.9637 6.63751 28.3046 8.07236 27.7001 9.51759C26.4858 12.4236 25.2689 15.3297 24.0545 18.2383C22.8714 21.0665 21.6908 23.8947 20.5076 26.7229C19.4386 29.2812 18.3618 31.8837 16.3147 33.8245C16.8699 34.0554 17.4278 34.2837 17.983 34.5147C17.2902 23.6689 13.9068 13.1501 8.19592 3.90792C7.85861 4.34901 7.51872 4.78751 7.18141 5.2286C12.1372 6.02517 17.0074 7.29915 21.7038 9.0739C24.1246 9.98982 26.4935 11.0381 28.8002 12.2135C29.8121 12.7272 30.9927 13.2046 31.8931 13.9052C33.1229 14.8626 32.3186 15.7137 31.2184 16.2637C29.0597 17.3431 26.3171 17.7297 23.9767 18.259C21.4158 18.8377 18.8341 19.3203 16.2368 19.7095C13.5695 20.109 10.8866 20.3996 8.19592 20.5891C5.65574 20.7681 3.11297 20.7266 0.601329 21.1391C-0.19264 21.2689 -0.208208 22.6414 0.601329 22.7582C5.06676 23.3965 9.89283 22.6129 14.3375 21.9954C19.1273 21.3285 23.8729 20.3426 28.5304 19.0374C30.7254 18.4225 36.3559 16.6685 33.8131 13.2877C32.713 11.8269 30.4452 11.0381 28.8599 10.2545C26.8231 9.25034 24.7395 8.33702 22.6197 7.5197C17.7884 5.65413 12.7729 4.31787 7.66142 3.49536C6.9375 3.3786 6.19803 4.08954 6.64691 4.81605C12.1762 13.778 15.3909 24.0088 16.0318 34.5147C16.0837 35.3579 17.0645 35.8068 17.7002 35.2048C19.8486 33.1784 21.0421 30.5137 22.1708 27.836C23.5771 24.4992 24.9834 21.1625 26.3872 17.8283C27.7753 14.5305 29.166 11.2353 30.5542 7.93744C31.548 5.57629 33.1722 2.56128 31.0783 0.319486C30.7747 -0.0048477 30.1416 -0.119014 29.7628 0.150832C25.998 2.81556 22.368 5.66451 18.9301 8.74179C15.5855 11.736 11.87 14.9223 9.63338 18.861C9.27012 19.4993 10.0485 20.4386 10.7154 19.943L10.7102 19.9404Z" fill="#FAC515"/>
<path d="M3.58761 50.0248C9.28032 47.6532 14.7525 44.5708 20.2584 41.7919L19.0544 40.8656C17.6871 47.7285 15.4868 54.3682 12.5314 60.7096H14.0104C10.9124 53.8156 6.70122 47.4872 1.6468 41.8749C1.37955 42.3342 1.11229 42.7934 0.84504 43.2527C8.2139 44.3165 15.4479 46.4311 22.0798 49.8483V48.8364C18.8183 50.4892 15.3441 51.6594 11.7401 52.2977C8.15165 52.9334 4.50353 52.8841 0.870996 52.8452C0.282006 52.84 0.126329 53.7715 0.728292 53.896C8.05564 55.4165 16.1718 53.307 22.6688 49.8483C23.0476 49.6459 23.0528 49.0362 22.6688 48.8364C15.946 45.3258 8.79512 42.7934 1.28096 41.6647C0.4818 41.5454 -0.102008 42.3887 0.479198 43.0425C5.41426 48.5847 9.42822 54.8405 12.5288 61.5788C12.7857 62.1367 13.7535 62.1419 14.0078 61.5788C16.9631 55.087 19.1712 48.2863 20.632 41.3041C20.7825 40.5828 20.0819 40.056 19.4281 40.3778C16.6777 41.7348 13.9274 43.0866 11.1874 44.4618C8.45782 45.8318 5.6374 47.1006 3.0064 48.647C2.29806 49.0621 2.77548 50.3647 3.58761 50.0248Z" fill="#FAC515"/>
</svg>
