<svg width="16" height="16" viewBox="0 0 16 16" fill="none" xmlns="http://www.w3.org/2000/svg">
<path d="M4.40518 5.3333e-06C4.27257 5.3333e-06 4.14544 0.052713 4.05163 0.146458C3.95788 0.240207 3.90523 0.36739 3.90518 0.500003V4.62505C3.90523 4.75765 3.95789 4.88483 4.05163 4.97859C4.14543 5.07234 4.27256 5.12504 4.40518 5.12504H9.09662L11.4003 6.08597C11.5546 6.15024 11.7307 6.13321 11.8698 6.04066C12.0089 5.94806 12.0925 5.79211 12.0927 5.62504V0.499997C12.0927 0.367394 12.0401 0.240212 11.9463 0.146453C11.8525 0.0527037 11.7253 0 11.5927 0L4.40518 5.3333e-06ZM6.66983 1.99999C6.68582 1.99921 6.70176 1.99921 6.71769 1.99999H9.27928C9.41381 1.99703 9.54386 2.04838 9.64006 2.14245C9.73626 2.23656 9.79048 2.36542 9.79048 2.49999C9.79048 2.63456 9.73626 2.76343 9.64006 2.85754C9.54387 2.9516 9.41381 3.00295 9.27928 2.99999H6.71769C6.54155 3.00447 6.37603 2.91603 6.28182 2.76707C6.18765 2.61816 6.17869 2.43067 6.25822 2.27343C6.33775 2.11619 6.4941 2.01234 6.66983 1.99999H6.66983ZM2.90132 6.22557C1.70731 6.22557 0.727463 7.20635 0.727463 8.40036C0.727463 9.59437 1.70724 10.5742 2.90132 10.5742C4.09532 10.5742 5.07517 9.59443 5.07517 8.40036C5.07517 7.20635 4.09539 6.22557 2.90132 6.22557ZM13.0985 6.22557C11.9045 6.22557 10.9246 7.20635 10.9246 8.40036C10.9246 9.59437 11.9044 10.5742 13.0985 10.5742C14.2925 10.5742 15.2694 9.59443 15.2694 8.40036C15.2694 7.20635 14.2925 6.22557 13.0985 6.22557ZM2.90132 11.2422C1.30253 11.2422 0 12.5477 0 14.1465V15.501C0.000260412 15.6331 0.0528117 15.7597 0.146093 15.8532C0.239425 15.9467 0.365931 15.9995 0.498064 16H5.29977C5.43258 16.0005 5.56008 15.9482 5.65425 15.8546C5.74842 15.761 5.80149 15.6338 5.80174 15.501V14.1465C5.80174 12.5477 4.50013 11.2422 2.90136 11.2422H2.90132ZM13.0985 11.2422C11.4997 11.2422 10.1981 12.5477 10.1981 14.1465V15.501C10.1983 15.6331 10.2509 15.7597 10.3442 15.8532C10.4375 15.9467 10.5641 15.9995 10.6962 16H15.4979C15.6306 16.0005 15.7581 15.9482 15.8523 15.8546C15.9465 15.7609 15.9995 15.6338 15.9998 15.501V14.1465C15.9998 12.5477 14.6972 11.2422 13.0985 11.2422Z" fill="#2F80ED"/>
</svg>
